<?xml version="1.0" encoding="utf-8"?>
<!-- Generator: Adobe Illustrator 28.1.0, SVG Export Plug-In . SVG Version: 6.00 Build 0)  -->
<svg version="1.1" id="Capa_1" xmlns="http://www.w3.org/2000/svg" xmlns:xlink="http://www.w3.org/1999/xlink" x="0px" y="0px"
	 viewBox="0 0 876 1033" style="enable-background:new 0 0 876 1033;" xml:space="preserve">
<style type="text/css">
	.st0{fill:#FFFFFF;}
	.st1{fill:#A48C4E;}
	.st2{fill:#71AFDB;}
</style>
<g>
	<path class="st0" d="M47.02,64.81c-0.24,51.23-0.02,278.05,0.15,402.93c0.14,82.9,5.42,141.76,32.89,215.34
		c18.71,50.19,46.24,99.11,73.62,130.88l9.62,11.4c1.16,1.11,2.03,2,2.92,3.21c3.13,3.78,6.56,7.18,10.2,10.78
		c2.39,2.38,4.73,4.7,7.01,7.16l1.04,1.21c0.34,0.4,0.6,0.72,1.04,1.16l13.53,12.31c49.23,43.38,105.6,74.93,177.26,99.22
		c10.17,3.41,54.12,16.63,62.16,17.79c7.87-1.07,49.36-13.77,61.32-17.79c32.2-11.01,60.36-23.1,86.01-36.95
		c28.65-15.39,50.91-29.97,74.5-48.78l27.06-23.69l20.13-20.6c1.9-2.27,4.01-4.59,6.17-6.96c2.75-3,5.59-6.1,8.12-9.34
		c21.82-27.96,29.16-37.38,49.18-74.05c28.88-52.93,50.31-126.1,55.92-190.93c2.27-26.05,2.59-52.97,2.72-80.54
		c0.13-125,0.27-351.87,0-403.76H47.02z"/>
	<path class="st1" d="M454.13,437.56c-2.73,1.28-8.18,3.57-11.05,4.28l6.75,17.81l74.74-28.48l-6.6-17.54
		c-9.62,2-14.06,9.84-25.97-4.83c-1.86-2.28-3.74-4.55-5.59-6.97l-22.53-28.06c-4.01-4.7-7.32-9.25-11.19-13.96l-28.12-35.03
		c-1.43-1.86-4.87-5.69-5.74-7.4c-2,0.14-38.87,14.08-40.59,15.24c-0.29,4.69,4.59,103.96,5.01,113.51
		c0.29,5.69,0.87,13.38-2.15,17.51c-1.86,2.56-8.89,5.84-13.2,6.85l6.75,17.8c6.31-2.43,57.82-21.65,59.25-22.78l-6.6-17.39
		c-4.59,1.15-16.07,8.27-19.08,2.72c-1.57-3-2.44-19.65-2.15-23.93l39.17-15.09c1.14,2.44,10.18,13.1,13.06,17.1
		C461.59,433.57,457.86,435.84,454.13,437.56 M404.92,406.66l-2.44-47c1.43,1.28,28.55,34.59,29.7,36.88L404.92,406.66z"/>
	<path class="st1" d="M552.11,386.58c-5.59,1.14-9.18,3.84-11.33,7.12c-10.04,14.54,2.87,31.9,18.36,28.62
		C583.97,416.77,574.35,381.74,552.11,386.58"/>
	<path class="st1" d="M329.46,471.46c-24.82,6.68-13.63,41.43,8.89,35.18C362.6,499.8,351.55,465.48,329.46,471.46"/>
	<path class="st1" d="M748.52,312.09c-25.11,3.56-18.95,39.88,4.59,36.03C777.93,344.27,771.04,308.81,748.52,312.09"/>
	<path class="st1" d="M636.47,367.63c-3.88,2.13-12.91,5.84-13.92,6.56l6.46,16.93l40.31-15.25c4.73-1.69,38.88-14.38,40.03-15.65
		c-1.3-3.13-5.17-15.1-6.75-16.82c-4.88,1.44-10.04,3.85-15.35,4.72c-6.75,1.13-7.6-1.59-10.77-9.28l-22.37-57.68
		c-2.01-5.4-10.19-25.49-11.04-29.06c16.49-5.97,26.67-3.56,36,10.84c2.44,3.84,3.72,8.25,6.02,11.81l18.23-6.68l-19.95-51.85
		c-4.44,1-11.9,4.42-16.49,6.13c-17.65,6.69-114.35,43.28-115.5,44.28l19.94,51.71l18.08-6.84c-2.15-8.83-6.75-18.09-2.72-29.19
		c2.86-7.69,11.77-14.4,18.79-15.68c1.43,2,4.6,11.25,5.74,14.25l28.26,73.06C642.35,361.5,643.21,363.79,636.47,367.63"/>
	<path class="st1" d="M220.13,423.47c7.03,4.13,11.77,9.24,15.78,15.95c1.43,2.27,2.44,4.84,3.73,6.97
		c2.58-0.56,18.65-6.69,19.66-7.68l-20.95-54.41l-18.65,6.69v12.11c-10.61-1.71-15.78-3.57-27.69-2.14
		c-22.52,2.85-45.19,16.66-56.09,35.75c-8.04,14.1-12.19,30.46-8.61,49.56c5.6,30.05,24.68,58.24,56.67,65.64
		c19.08,4.43,36.3,0.16,52.23-6.25c23.67-9.69,40.03-26.5,39.6-51.99c-0.15-7.13-2.44-19.94-5.18-25.35
		c-3.43,1.13-7.02,2.69-10.61,3.98c-3.44,1.28-7.6,2.72-10.61,4.15c3.16,12.94,5.03,22.63-1.43,34.59
		c-9.62,17.66-49.36,33.62-71.6-24.35c-4.02-10.4-7.74-23.22-6.45-35.89C172.79,420.62,203.92,414.06,220.13,423.47"/>
	<path class="st2" d="M830.04,64.81H46.56c-0.35,3.9-0.26,189.79-0.13,308.02L830.04,64.81z"/>
	<path class="st2" d="M685.03,461.88v394.26l4.43-3.9l20.23-20.76c4.32-5.21,9.84-10.65,14.43-16.52
		c22.11-28.41,29.39-37.98,48.93-73.89c29.66-54.5,50.28-126.9,55.81-190.94c2.29-26.36,2.56-53.14,2.7-79.63
		c0,0,0.02-26.33,0.05-65.52L685.03,461.88z"/>
	<path class="st2" d="M519.61,554.33c0-9.13,0.21-18.86,0.19-28.34l-162.45,63.02V955.3c5.83,2.14,11.62,4.32,17.6,6.34
		c6.88,2.33,56.89,17.75,64.04,18.02c6.33,0.15,54.6-15.01,63.5-18.02c5.85-1.99,11.6-4.12,17.34-6.26
		c-0.02-2.24-0.22-5.72-0.22-11.51V554.33z"/>
	<path class="st2" d="M83.35,694.11c17.11,43.16,41.81,88.71,69.7,121.12l9.3,11.06c0.8,0.96,1.62,1.5,2.42,2.61
		c6.07,7.36,12.01,12.42,17.54,18.44c0.94,1.08,1.34,1.64,2.28,2.6l7.06,6.43l0.12-204.32L83.35,694.11z"/>
	<path class="st1" d="M438.43,988.08l-1.37-0.19c-9.31-1.35-55.02-15.23-63.88-18.22c-72.93-24.72-130.33-56.87-180.6-101.15
		l-15.59-14.5c-2.84-3.13-4.98-5.27-7.16-7.43c-4.19-4.13-7.82-7.76-11.15-11.77c-0.88-1.18-1.43-1.69-2.14-2.35l-10.35-12.18
		c-28.02-32.51-56.2-82.53-75.3-133.76C42.91,611.54,37.54,551.8,37.39,467.78C37.23,342.86,37.01,116,37.25,64.76l0.03-9.71H839.3
		l0.06,9.7c0.25,49.96,0.15,270.5,0,403.84c-0.13,27.76-0.44,54.85-2.75,81.36c-5.73,66.11-27.62,140.76-57.09,194.78
		c-20.38,37.35-27.86,46.92-50.03,75.35c-2.51,3.23-5.3,6.3-8.01,9.27c-2.68,2.95-4.68,5.14-6.49,7.31l-20.65,21.17l-27.62,24.21
		c-24.42,19.47-47.14,34.35-76.32,50.04c-26.09,14.09-54.7,26.39-87.48,37.57c-9.99,3.37-53.76,16.96-63.15,18.25L438.43,988.08z
		 M56.76,74.57c-0.19,65.59,0.02,275,0.17,393.17c0.14,81.75,5.31,139.74,32.28,211.93c18.34,49.16,45.22,97,71.86,127.91
		l9.69,11.49c0.9,0.78,2.09,2.03,3.33,3.72c2.58,3.07,5.79,6.23,9.16,9.58c2.73,2.72,5.07,5.03,7.36,7.52l1.28,1.47l13.73,12.6
		c48.16,42.42,103.43,73.34,173.83,97.19c11.05,3.72,49.36,15.1,59.04,17.13c9.26-1.93,45.14-12.75,58.19-17.13
		c31.67-10.85,59.33-22.71,84.48-36.29c28.1-15.1,49.95-29.4,73.06-47.83l26.72-23.39l19.56-20.09c1.47-1.81,3.68-4.23,5.96-6.71
		c2.98-3.26,5.42-5.94,7.62-8.76c21.46-27.49,28.68-36.76,48.28-72.71c28.28-51.8,49.27-123.51,54.79-187.12
		c2.24-25.77,2.58-52.41,2.71-79.72c0.15-125.95,0.22-329.81,0-393.96H56.76z"/>
	<polygon class="st1" points="48.2,380.64 44.63,371.54 828.24,63.51 831.82,72.61 	"/>
	<polygon class="st1" points="87.7,699.92 84.14,690.83 828.24,398.36 831.82,407.44 	"/>
</g>
</svg>
