<?xml version="1.0" encoding="utf-8"?>
<!-- Generator: Adobe Illustrator 28.1.0, SVG Export Plug-In . SVG Version: 6.00 Build 0)  -->
<svg version="1.1" id="Capa_1" xmlns="http://www.w3.org/2000/svg" xmlns:xlink="http://www.w3.org/1999/xlink" x="0px" y="0px"
	 viewBox="0 0 876 1033" style="enable-background:new 0 0 876 1033;" xml:space="preserve">
<style type="text/css">
	.st0{clip-path:url(#SVGID_00000147221406821456600420000006798323999621610118_);}
	.st1{fill:#007934;}
	.st2{fill:#FFFFFF;}
	.st3{fill:#BD9C52;}
	.st4{fill:#2B2523;}
</style>
<g>
	<g>
		<defs>
			<path id="SVGID_1_" d="M752.55,166.98c0-3.06-3.67-4.52-5.85-2.37c-16.99,16.77-40.31,27.12-66.07,27.12
				c-29.41,0-55.65-13.49-72.91-34.62c-1.41-1.73-4.06-1.54-5.38,0.26c-18.38,25.03-48.02,41.29-81.46,41.29
				c-32.81,0-61.95-15.65-80.4-39.89c-1.4-1.84-4.11-1.84-5.51,0c-18.45,24.23-47.59,39.89-80.4,39.89
				c-33.44,0-63.07-16.25-81.46-41.29c-1.32-1.8-3.97-1.98-5.38-0.26c-17.25,21.13-43.5,34.62-72.91,34.62
				c-25.75,0-49.08-10.36-66.07-27.12c-2.18-2.15-5.85-0.69-5.85,2.37l0,230.41h0.14l-0.14,292.78
				c-0.01,16.34,7.02,31.89,19.29,42.69l293.28,259.49c1.28,1.14,3.21,1.14,4.5,0l293.63-259.56c12.06-10.79,18.95-26.2,18.94-42.38
				l-0.12-293.02h0.12V166.98z"/>
		</defs>
		<clipPath id="SVGID_00000122704935857957368580000018154880098743193768_">
			<use xlink:href="#SVGID_1_"  style="overflow:visible;"/>
		</clipPath>
		<g style="clip-path:url(#SVGID_00000122704935857957368580000018154880098743193768_);">
			<g>
				<rect x="132.77" y="108.88" class="st1" width="87.13" height="888.8"/>
			</g>
			<g>
				<rect x="219.9" y="108.88" class="st2" width="87.13" height="888.8"/>
			</g>
			<g>
				<rect x="307.03" y="108.88" class="st1" width="87.13" height="888.8"/>
			</g>
			<g>
				<rect x="394.17" y="108.88" class="st2" width="87.13" height="888.8"/>
			</g>
			<g>
				<rect x="481.3" y="108.88" class="st1" width="87.13" height="888.8"/>
			</g>
			<g>
				<rect x="568.43" y="108.88" class="st2" width="87.13" height="888.8"/>
			</g>
			<g>
				<rect x="655.57" y="108.88" class="st1" width="87.13" height="888.8"/>
			</g>
			<g>
				<rect x="215.81" y="108.88" class="st3" width="8.08" height="888.8"/>
				<rect x="302.99" y="108.88" class="st3" width="8.08" height="888.8"/>
				<rect x="390.13" y="108.88" class="st3" width="8.08" height="888.8"/>
				<rect x="477.26" y="108.88" class="st3" width="8.08" height="888.8"/>
				<rect x="564.39" y="108.88" class="st3" width="8.08" height="888.8"/>
				<rect x="651.53" y="108.88" class="st3" width="8.08" height="888.8"/>
			</g>
		</g>
	</g>
	<polygon class="st3" points="350.25,28.98 363.23,59.89 396.64,62.69 371.28,84.59 378.92,117.22 350.25,99.85 321.57,117.22 
		329.24,84.59 303.86,62.69 337.28,59.89 	"/>
	<polygon class="st3" points="524.56,28.98 537.54,59.89 570.94,62.69 545.58,84.59 553.23,117.22 524.56,99.85 495.88,117.22 
		503.54,84.59 478.17,62.69 511.59,59.89 	"/>
	<path class="st3" d="M605.7,179.67c20.35,18.63,46.9,29.07,74.93,29.07c19.55,0,38.35-5.03,54.91-14.48v186.13h-0.13l0.01,17.01
		l0.12,293.02c0,11.32-4.83,22.15-13.2,29.63L437.74,971.63l-284.3-251.54c-8.59-7.56-13.52-18.47-13.52-29.91l0.14-292.78
		l-0.13-17.01h-0.01V194.26c16.56,9.45,35.36,14.48,54.91,14.48c28.03,0,54.58-10.44,74.93-29.06
		c22.08,22.76,52.77,35.99,84.81,35.99c31.64,0,61.17-12.32,83.16-34.26c21.99,21.95,51.52,34.26,83.16,34.26
		C552.93,215.66,583.62,202.44,605.7,179.67 M605.19,155.91c-1.07,0-2.14,0.5-2.84,1.45c-18.38,25.03-48.02,41.29-81.46,41.29
		c-32.81,0-61.95-15.65-80.4-39.89c-0.7-0.92-1.73-1.38-2.76-1.38c-1.03,0-2.05,0.46-2.76,1.38c-18.45,24.23-47.59,39.89-80.4,39.89
		c-33.44,0-63.07-16.25-81.46-41.29c-0.7-0.95-1.78-1.45-2.84-1.45c-0.94,0-1.87,0.39-2.53,1.2c-17.25,21.13-43.5,34.62-72.91,34.62
		c-25.75,0-49.08-10.36-66.07-27.12c-0.71-0.7-1.59-1.02-2.44-1.02c-1.75,0-3.41,1.33-3.41,3.39v230.41h0.14l-0.14,292.78
		c-0.01,16.34,7.02,31.89,19.29,42.69l293.28,259.49c0.64,0.57,1.45,0.85,2.25,0.85c0.8,0,1.61-0.28,2.25-0.85l293.63-259.56
		c12.06-10.79,18.95-26.2,18.94-42.38l-0.12-293.02h0.12V166.98c0-2.06-1.66-3.39-3.41-3.39c-0.85,0-1.72,0.32-2.44,1.02
		c-16.99,16.77-40.31,27.12-66.07,27.12c-29.41,0-55.65-13.49-72.91-34.62C607.06,156.3,606.13,155.91,605.19,155.91L605.19,155.91z
		"/>
	<g>
		<path class="st4" d="M265.59,544.49c-4.18,0-8.11-0.76-11.7-2.29c-3.6-1.53-6.72-3.62-9.34-6.27c-2.61-2.64-4.66-5.77-6.13-9.37
			c-1.48-3.61-2.23-7.46-2.23-11.55v-0.17c0-4.09,0.75-7.93,2.23-11.51c1.47-3.57,3.52-6.71,6.13-9.42c2.61-2.7,5.75-4.83,9.41-6.39
			c3.67-1.55,7.7-2.32,12.13-2.32c2.69,0,5.11,0.21,7.33,0.65c2.2,0.44,4.2,1.04,6.01,1.81c1.81,0.76,3.48,1.68,5.01,2.78
			c1.53,1.1,2.94,2.3,4.24,3.6l-8.03,9.25c-2.24-2.02-4.52-3.6-6.85-4.74c-2.31-1.14-4.91-1.73-7.81-1.73
			c-2.4,0-4.63,0.47-6.68,1.39c-2.03,0.94-3.81,2.22-5.28,3.85c-1.46,1.64-2.62,3.55-3.44,5.7c-0.81,2.16-1.21,4.46-1.21,6.92v0.17
			c0,2.46,0.4,4.78,1.21,6.96c0.82,2.18,1.97,4.1,3.39,5.74c1.45,1.64,3.2,2.93,5.25,3.89c2.06,0.96,4.3,1.44,6.76,1.44
			c3.27,0,6.05-0.6,8.3-1.81c2.29-1.19,4.52-2.83,6.77-4.91l8.03,8.12c-1.48,1.57-3.01,2.99-4.61,4.25
			c-1.59,1.24-3.3,2.33-5.18,3.22c-1.89,0.91-3.95,1.58-6.19,2.05C270.9,544.25,268.39,544.49,265.59,544.49z"/>
		<path class="st4" d="M433.51,485.77h11.62l24.57,57.73h-13.18l-5.24-12.85h-24.23l-5.24,12.85h-12.85L433.51,485.77z
			 M446.77,519.52l-7.63-18.59l-7.61,18.59H446.77z"/>
		<path class="st4" d="M586.54,486.19h26.55c6.61,0,11.59,1.69,14.97,5.07c2.6,2.63,3.91,5.88,3.91,9.76v0.15
			c0,1.64-0.19,3.09-0.6,4.33c-0.42,1.26-0.96,2.4-1.62,3.4c-0.68,1.02-1.48,1.91-2.37,2.66c-0.9,0.76-1.86,1.42-2.89,1.97
			c3.31,1.27,5.93,2.97,7.82,5.12c1.91,2.16,2.85,5.14,2.85,8.96v0.18c0,2.61-0.5,4.9-1.5,6.86c-1.02,1.97-2.46,3.61-4.33,4.92
			c-1.89,1.31-4.15,2.3-6.81,2.95c-2.64,0.66-5.58,0.98-8.78,0.98h-27.21V486.19z M610.43,509.36c2.79,0,4.99-0.46,6.62-1.43
			c1.66-0.94,2.46-2.49,2.46-4.62v-0.17c0-1.91-0.71-3.37-2.12-4.37c-1.43-1.02-3.46-1.51-6.16-1.51H598.8v12.11H610.43z
			 M613.8,532.45c2.78,0,4.96-0.49,6.55-1.51c1.57-1.01,2.36-2.58,2.36-4.71v-0.17c0-1.9-0.73-3.43-2.22-4.54
			c-1.47-1.13-3.84-1.68-7.12-1.68H598.8v12.61H613.8z"/>
	</g>
</g>
</svg>
