<?xml version="1.0" encoding="utf-8"?>
<!-- Generator: Adobe Illustrator 28.1.0, SVG Export Plug-In . SVG Version: 6.00 Build 0)  -->
<svg version="1.1" id="Capa_1" xmlns="http://www.w3.org/2000/svg" xmlns:xlink="http://www.w3.org/1999/xlink" x="0px" y="0px"
	 viewBox="0 0 876 1033" style="enable-background:new 0 0 876 1033;" xml:space="preserve">
<style type="text/css">
	.st0{fill:#E60005;}
	.st1{fill:#B59F67;}
	.st2{fill:#FFFFFF;}
</style>
<g>
	<path class="st0" d="M715.68,273.84H162.32v536.07c0,30.69,15.72,55.45,43.05,70.4c75.31,41.18,149.33-10.55,233.63,92.95
		c84.3-103.51,158.32-51.77,233.63-92.95c27.33-14.94,43.05-39.7,43.05-70.4V273.84z"/>
	<polygon class="st1" points="403.67,129.28 389.73,187.38 438.71,158.86 487.55,187.22 474.39,129.09 517.31,90.35 457.46,90.46 
		439,31.75 420.67,90.46 360.77,90.37 	"/>
	<path class="st1" d="M715.68,273.84v536.07c0,30.69-15.72,55.45-43.05,70.4C597.32,921.49,523.3,869.75,439,973.26
		c-84.3-103.51-158.32-51.77-233.63-92.95c-27.33-14.94-43.05-39.7-43.05-70.4l0-536.07H715.68 M733.35,256.17h-17.68H162.32h-17.68
		v17.68v536.07c0,36.44,19.04,67.75,52.24,85.91c31.55,17.25,62.23,19.84,91.9,22.33c45.56,3.84,88.61,7.45,136.51,66.28l13.7,16.83
		l13.71-16.83c47.9-58.82,90.94-62.44,136.51-66.28c29.67-2.49,60.34-5.08,91.9-22.33c33.2-18.16,52.25-49.46,52.25-85.91l0-536.07
		V256.17z"/>
	<polygon class="st2" points="522.19,403.07 522.19,403.05 522.11,403.07 	"/>
	<path class="st2" d="M241.37,874.88c16.33,4.39,33.07,5.82,50.44,7.28c9.31,0.78,18.86,1.59,28.61,2.87V446.77h-79.05V874.88z
		 M557.58,446.77v438.26c9.75-1.28,19.31-2.09,28.61-2.87c17.37-1.46,34.11-2.89,50.44-7.28v-428.1H557.58z M399.47,912.26
		c12.99,8.28,26.18,19.01,39.53,33.06c13.34-14.05,26.53-24.78,39.53-33.06V446.77h-79.05V912.26z"/>
	<polygon class="st2" points="260.19,395.54 306.68,395.54 306.68,412.18 241.42,412.18 241.42,317.62 306.68,317.62 306.68,334.25 
		260.19,334.25 260.19,355.89 302.41,355.89 302.41,372.99 260.19,372.99 	"/>
	<polygon class="st2" points="484.66,317.7 503.44,317.7 503.44,395.73 546.05,395.73 546.05,412.12 484.66,412.12 	"/>
	<path class="st2" d="M573.7,317.57h34.79c21.8,0,33.55,4.22,34.98,27.03c0.08,1.33-0.23,8.35-0.23,9.8
		c0,20.7-13.05,28.56-29.79,28.56h-21.47v29.16H573.7V317.57z M591.98,367.25h14.86c13.06,0,17.63-4.04,17.99-13.3
		c0.05-1.25,0-6.62-0.02-7.71c-0.22-11.54-6.43-12.97-18.98-12.97h-13.85V367.25z"/>
	<path class="st2" d="M456.9,383.75l0.1-15.27c0-17.48-8.02-27.7-26.8-27.7c-18.39,0-27.18,10.61-27.41,28.94l0.13,19.6
		c0.23,14.68,9.43,24.39,27.93,24.39c10.88,0,17.47-3.24,24.72-7.38l-5.17-11.52c-6.73,3.62-10.75,5.44-18.91,5.44
		c-9.45,0-12.8-5.31-12.8-10.75v-5.74H456.9z M430.21,354.24c9.45,0,11.54,6.08,11.54,17.34h-23.29
		C418.46,359.68,420.89,354.24,430.21,354.24"/>
	<path class="st2" d="M390,412.14l-0.15-95.06h-15.53c0,0,0.01,29.86,0,30.31c-3.65-3.63-9.78-4.94-16.67-4.94
		c-15.42,0-23.31,10.36-23.31,27.71v15.19c0,17.35,8.02,27.83,23.69,27.83c7.16,0,12.3-2.69,16.29-6.29v5.26H390z M362,398.55
		c-8.16,0-11.8-4.86-11.8-15.27v-10.92c0-10.24,3.64-15.28,11.8-15.28c4.86,0,9.03,2.43,12.32,6.24v28.8
		C371.03,395.94,366.87,398.55,362,398.55"/>
</g>
</svg>
