<?xml version="1.0" encoding="utf-8"?>
<!-- Generator: Adobe Illustrator 28.1.0, SVG Export Plug-In . SVG Version: 6.00 Build 0)  -->
<svg version="1.1" id="Capa_1" xmlns="http://www.w3.org/2000/svg" xmlns:xlink="http://www.w3.org/1999/xlink" x="0px" y="0px"
	 viewBox="0 0 876 1033" style="enable-background:new 0 0 876 1033;" xml:space="preserve">
<style type="text/css">
	.st0{fill:#FFFFFF;}
	.st1{fill:#E42229;}
</style>
<g>
	<g>
		<g>
			<polygon class="st0" points="847.51,100.84 595.73,100.84 595.73,236.22 444.9,236.22 429.48,236.22 278.65,236.22 
				278.65,100.84 26.84,100.84 26.84,509.37 281.03,932.16 436.57,932.16 437.77,932.16 593.37,932.16 847.51,509.37 			"/>
			<path class="st1" d="M581.56,465.41c0-6.79,5.47-12.26,12.24-12.26c6.75,0,12.26,5.47,12.26,12.26c0,6.73-5.52,12.22-12.26,12.22
				C587.03,477.63,581.56,472.14,581.56,465.41 M697.61,416.55c20.97-12.85,26.86-36.26,15.35-57.77l-14.85,9.09
				c6.56,13.43,5.33,28.06-8.14,36.3c-18.57,11.44-36.39-0.23-46.63-16.85c-10.21-16.62-12.5-37.8,6.07-49.18
				c12.64-7.77,23.51-4.45,32.2,3.96l15.17-9.34c-13.33-17.57-35.36-18.89-55.01-7.03c-25.95,15.95-28.81,46.16-13.62,70.92
				C643.39,421.45,671.6,432.55,697.61,416.55 M542.35,511.91c21.02-12.93,26.89-36.3,15.35-57.77l-14.78,9.09
				c6.54,13.38,5.34,27.99-8.16,36.26c-18.58,11.45-36.44-0.22-46.62-16.84c-10.21-16.63-12.52-37.81,6.05-49.2
				c12.65-7.76,23.57-4.44,32.18,3.94l15.21-9.3c-13.32-17.59-35.38-18.9-55-7.03c-25.99,15.94-28.85,46.14-13.58,70.92
				C488.17,516.75,516.38,527.85,542.35,511.91 M439.03,573.08c6.8,0,12.27-5.48,12.27-12.26c0-6.79-5.47-12.26-12.27-12.26
				c-6.72,0-12.18,5.47-12.18,12.26C426.86,567.6,432.32,573.08,439.03,573.08 M290.77,663.38c6.76,0,12.26-5.52,12.26-12.26
				c0-6.79-5.5-12.31-12.26-12.31c-6.75,0-12.26,5.52-12.26,12.31C278.52,657.86,284.02,663.38,290.77,663.38 M345.57,629.88
				l-19.99-107.13l16.17-9.88l86.66,66.16l-16.27,10l-22.24-17.96l-34.61,21.24l5.97,27.95L345.57,629.88z M342.57,532.9l9.75,45.36
				l26.5-16.27l-35.92-29.28L342.57,532.9z M847.51,100.84v408.54L593.37,932.16h-155.6h-1.2H281.03L26.84,509.38V100.84h251.8
				v135.38h150.83h15.42h150.83V100.84H847.51z M833.27,115.06H610v121.16v14.27h-14.27H444.9h-15.42H278.65h-14.27v-14.27V115.06
				H41.11V505.4l247.92,412.5h147.54h1.2H585.3l247.97-412.5V115.06z M254.38,685.88l15.14-9.31l-53.21-86.68l-15.15,9.3
				L254.38,685.88z M749.86,380.95c6.75,0,12.24-5.5,12.24-12.26c0-6.76-5.49-12.26-12.24-12.26c-6.75,0-12.28,5.5-12.28,12.26
				C737.58,375.45,743.11,380.95,749.86,380.95 M583.28,269.17h48.74V138.24h35.55h102.14h39.1v45.78v16.48v163.28v16.43v131.56
				l-232.4,383.01h-95.29h-87.88h-95.28L65.59,508.2V138.24h39.08h102.12h39.11v130.93h45.2h102.13h87.88H583.28z M104.67,152.47
				H79.88v351.79l24.79,41.25V152.47z M393.23,283.38v157.76l87.88-54.38V283.38H393.23z M206.79,556.49l84.31-52.16V283.38h-45.2
				h-14.26v-14.21v-116.7h-24.85V556.49z M291.1,700.52l-68,42.07l68,113.14V700.52z M481.12,582.96l-87.88,54.38v243.19h87.88
				V582.96z M667.57,467.59l-84.29,52.16v336.22l84.29-138.95V467.59z M794.49,389.06l-24.78,15.33v144.26l24.78-40.85V389.06z
				 M794.49,209.36l-650.13,402.2l71.56,119.05l578.58-357.97V209.36z M769.71,208.2l-0.22,0.15l25-15.47v-40.41h-24.78V208.2z
				 M632.02,283.38h-48.74v40.17l84.29-52.15V152.47h-21.3v116.7v14.21H632.02z"/>
		</g>
	</g>
</g>
</svg>
